<svg xmlns="http://www.w3.org/2000/svg" xmlns:xlink="http://www.w3.org/1999/xlink" id="Layer_2" data-name="Layer 2" viewBox="0 0 147 44.23"><defs><style> .cls-1 { fill: url(#linear-gradient); } .cls-1, .cls-2, .cls-3, .cls-4, .cls-5, .cls-6 { stroke-width: 0px; } .cls-2 { fill: url(#linear-gradient-4); } .cls-3 { fill: url(#linear-gradient-2); } .cls-4 { fill: url(#linear-gradient-3); } .cls-5 { fill: url(#linear-gradient-5); } .cls-6 { fill: url(#linear-gradient-6); } </style><linearGradient id="linear-gradient" x1="-4.24" y1="24.49" x2="138.16" y2="6.27" gradientUnits="userSpaceOnUse"><stop offset="0" stop-color="#4765e6"></stop><stop offset=".46" stop-color="#5c4099"></stop><stop offset="1" stop-color="#e31662"></stop></linearGradient><linearGradient id="linear-gradient-2" x1="-3" y1="34.19" x2="139.4" y2="15.96" xlink:href="#linear-gradient"></linearGradient><linearGradient id="linear-gradient-3" x1="-1.7" y1="44.31" x2="140.7" y2="26.09" xlink:href="#linear-gradient"></linearGradient><linearGradient id="linear-gradient-4" x1="-2.48" y1="38.21" x2="139.92" y2="19.98" xlink:href="#linear-gradient"></linearGradient><linearGradient id="linear-gradient-5" x1="-2.05" y1="41.63" x2="140.36" y2="23.41" xlink:href="#linear-gradient"></linearGradient><linearGradient id="linear-gradient-6" x1="-4.75" y1="20.5" x2="137.65" y2="2.28" xlink:href="#linear-gradient"></linearGradient></defs><g id="Layer_1-2" data-name="Layer 1"><g><path class="cls-1" d="M0,.29c7.16,0,14.24-.52,21.22.11,12.68,1.16,14.64,13.49,10.84,21.24-1.34,2.73-2.46,3.78-6.99,6.79,3.49,4.76,6.98,9.52,10.7,14.59-4.03,0-7.73.04-11.43-.05-.43-.01-.92-.69-1.25-1.16-2.4-3.4-4.95-6.71-7.06-10.28-1.45-2.44-3.27-2.75-5.84-2.16,0,4.46,0,8.96,0,13.56-3.48,0-6.76,0-10.17,0C0,28.71,0,14.47,0,.29ZM10.3,9.46c0,3.44,0,6.93,0,10.41,2.84,0,5.53.13,8.21-.04,2.79-.18,4.8-2.39,4.91-5.01.12-2.92-1.33-4.96-4.38-5.29-2.83-.31-5.71-.07-8.74-.07Z"></path><path class="cls-3" d="M61.96,33.04c.87,2.48,1.76,4.94,2.55,7.43.09.29-.29.94-.62,1.11-6.78,3.48-18.38,3.82-24.56-1.54-2.81-2.43-4.51-5.5-5.05-9.12-.94-6.35-.01-12.22,5.02-16.83,2.29-2.1,5.07-3.23,8.09-3.61,5.1-.64,10.09-.36,14.22,3.24,4.6,4.01,5.4,9.38,5.1,15.06-.02.35-.99.92-1.53.93-6.07.07-12.14.04-18.21.04-.66,0-1.32,0-2.02,0,.91,3.55,4.44,5.54,8.79,5.06,1.4-.16,2.8-.36,4.17-.65,1.31-.28,2.58-.7,4.06-1.11ZM44.81,23.55h5.6c1.81,0,3.62,0,5.44,0-.21-3.04-2.22-4.98-5.12-5.14-2.8-.16-5.41,2-5.92,5.14Z"></path><path class="cls-4" d="M146.9,29.78c-7.38,0-14.53,0-21.84,0,.9,2.86,2.82,4.24,5.44,4.79,3.35.7,6.55-.12,9.75-.99.58-.16,1.15-.35,1.93-.58.88,2.51,1.78,4.95,2.56,7.44.1.31-.36,1.05-.73,1.2-7.57,3.23-15.19,3.77-22.59-.3-4.11-2.26-6.29-6.13-6.93-10.71-.85-6.13.1-11.8,4.82-16.38,5.62-5.44,19.09-5.73,24.25,1.19,3.16,4.23,3.72,9.02,3.35,14.34ZM125.05,23.44h11.08c-.39-3.12-2.41-4.98-5.37-5.04-2.77-.06-5.19,2.03-5.72,5.04Z"></path><path class="cls-2" d="M68.17,11.39h9.97c.07.79.14,1.55.22,2.48.34-.21.66-.34.9-.55,3.79-3.23,8.1-3.97,12.7-2.27,4.66,1.72,7.15,5.43,7.53,10.2.43,5.36.29,10.77.38,16.16.03,1.77,0,3.55,0,5.48-3.41,0-6.73,0-10.27,0,0-1.57,0-3.14,0-4.72,0-4.29.06-8.59-.02-12.88-.07-3.57-1.77-5.6-4.63-5.8-3.16-.22-5.85,1.85-6.37,5.11-.29,1.86-.3,3.78-.32,5.67-.04,4.16-.01,8.33-.01,12.63-3.38,0-6.66,0-10.09,0,0-10.4,0-20.85,0-31.52Z"></path><path class="cls-5" d="M112.75,42.99c-3.39,0-6.63,0-10.01,0,0-10.29,0-20.53,0-30.81,4.59,2.9,5.94,2.89,10.01-.18,0,10.35,0,20.59,0,30.99Z"></path><path class="cls-6" d="M107.63,12.23c-3.52,0-6.19-2.65-6.17-6.13.01-3.41,2.81-6.13,6.27-6.09,3.33.04,6.09,2.8,6.08,6.1,0,3.53-2.62,6.13-6.18,6.12Z"></path></g></g></svg>